<svg width="734" height="100" viewBox="0 0 734 100" fill="none" xmlns="http://www.w3.org/2000/svg">
<g clip-path="url(#clip0_1351_310)">
<path d="M435.873 0.00158691C420.723 0.00158691 405.913 13.7209 404.21 33.544V1.63579H382.453V97.8473H404.476V51.277C404.476 38.2316 413.723 19.8296 435.873 19.8296V0.00158691Z" fill="#788293"/>
<path d="M666.887 82.4447V16.5283H679.643C696.653 16.5283 710.477 27.1599 710.477 48.955C710.477 70.7497 696.653 82.4447 679.643 82.4447H666.887ZM645.09 97.8607H682.303C705.16 97.8607 733.333 82.9764 733.333 48.955C733.333 15.4651 705.16 1.64392 682.303 1.64392H645.09V97.8607Z" fill="#788293"/>
<path d="M561.698 50.0193C561.698 32.477 570.734 18.1243 585.618 18.1243C599.971 18.1243 607.944 32.477 607.944 50.0193C607.944 67.5616 599.971 81.9143 585.618 81.9143C570.734 81.9143 561.698 67.5616 561.698 50.0193ZM539.371 51.0823C539.371 79.788 554.254 99.9883 577.644 99.9883C594.654 99.9883 604.754 88.825 610.071 70.751V97.862H631.861V1.64517H610.071V27.1612C605.288 10.1505 595.188 0.050415 579.241 0.050415C555.318 0.050415 539.371 21.8454 539.371 51.0823Z" fill="#788293"/>
<path d="M43.0583 99.9883C15.9475 99.9883 0 78.1933 0 51.0823C0 22.9085 17.5423 0.050415 51.032 0.050415C85.585 0.050415 97.28 23.4401 97.8113 36.7296H72.827C72.2953 29.2875 65.9163 18.1243 50.5003 18.1243C34.0213 18.1243 23.3897 32.477 23.3897 50.0193C23.3897 67.5616 34.0213 81.9143 50.5003 81.9143C65.3847 81.9143 71.7637 70.2196 74.4217 58.5246H50.5003V48.956H100.695V97.862H78.6743V67.03C77.0797 78.1933 70.169 99.9883 43.0583 99.9883Z" fill="#788293"/>
<path d="M145.345 99.987C124.613 99.987 111.855 86.1657 111.855 58.5234V1.64392H134.182V58.5234C134.182 72.876 141.092 79.7867 152.787 79.7867C175.645 79.7867 184.151 51.6127 184.151 31.9442V1.64392H206.477V97.8607H184.682V62.2444C180.429 81.913 168.735 99.987 145.345 99.987Z" fill="#788293"/>
<path d="M339.893 0C320.844 0 308.828 18.4007 304.905 35.4143C304.235 12.614 293.022 0 275.082 0C259.582 0 245.202 13.8225 241.468 35.6897V1.63674H219.703V97.8557H241.747V63.3617C241.747 54.81 245.312 19.7165 267.502 19.7165C281.877 19.7165 283.376 32.6831 283.376 50.4077V97.8557H305.409V63.3617C305.409 54.81 309.122 19.7165 331.312 19.7165C345.676 19.7165 347.159 32.6831 347.159 50.4077V97.8557H369.223V40.9427C369.323 13.6392 359.683 0 339.893 0Z" fill="#788293"/>
<path d="M483.166 0C454.63 0 435.293 22.3759 435.293 49.994C435.293 80.4253 453.683 99.9877 483.166 99.9877C511.703 99.9877 531.383 77.6123 531.383 49.994C531.383 19.563 512.636 0 483.166 0ZM483.166 82.9567C466.553 82.9567 455.793 68.892 455.793 49.994C455.793 31.0961 466.59 17.031 483.166 17.031C499.74 17.031 510.106 31.0961 510.106 49.994C510.106 68.892 499.73 82.9567 483.166 82.9567Z" fill="#788293"/>
</g>
<defs>
<clipPath id="clip0_1351_310">
<rect width="733.333" height="100" fill="white"/>
</clipPath>
</defs>
</svg>
