<svg width="300" height="100" viewBox="0 0 300 100" fill="none" xmlns="http://www.w3.org/2000/svg">
<path d="M41.5302 72.7912H28.2301V53.8248H19.6256V72.7912H5.98438V23.8668H19.5994V42.1249H28.2038V23.8668H41.504V72.7912H41.5302ZM102.496 73.0011C116.111 73.0011 127.234 61.6685 127.234 47.8699C127.234 33.8616 116.111 23.0273 102.496 23.0273C88.6974 23.0273 81.7194 33.0483 80.0404 37.1407C80.0404 31.0809 73.9806 23.8406 66.9501 23.8406H44.2323V72.7912H65.3761C73.9806 72.7912 80.0404 65.446 80.0404 58.9927C81.9555 62.9801 88.7236 73.0011 102.496 73.0011ZM63.6972 53.1165C65.6647 53.1165 67.2387 55.0315 67.2387 57.2089C67.2387 59.4911 65.6647 61.4061 63.6972 61.4061H56.9291V53.1165H63.6972ZM63.6972 34.7535C65.6647 34.7535 67.2387 36.6685 67.2387 38.8458C67.2387 41.0231 65.6647 42.9382 63.6972 42.9382H56.9291V34.7535H63.6972ZM72.6428 47.8699C74.2167 47.765 76.7876 45.9549 77.7582 44.8794C77.3909 46.191 77.3909 50.3358 77.7582 51.6475C76.6826 50.0473 74.2167 48.1585 72.6428 47.8699ZM90.0878 47.8699C90.0878 40.9707 95.7016 35.4093 102.601 35.4355C109.526 35.488 115.035 41.1281 114.957 48.0536C114.852 54.8741 109.343 60.3568 102.522 60.3568C95.6492 60.3568 90.0878 54.7954 90.0878 47.8699ZM102.496 57.6811C107.795 57.6811 112.255 53.3264 112.255 47.8699C112.255 42.4135 107.795 38.1113 102.496 38.1113C97.0395 38.1113 92.6848 42.4135 92.6848 47.8699C92.6848 53.3264 97.0395 57.6811 102.496 57.6811Z" fill="#788293"/>
<path d="M198.32 41.1804C198.057 29.3231 189.663 23.0534 179.379 23.0534C173.739 23.0534 168.65 24.9422 165.187 28.6148C161.724 24.9422 156.635 23.0534 150.995 23.0534C140.712 23.0534 132.317 29.3493 132.055 41.2066C132.055 41.2329 132.055 41.2591 132.055 41.2853V68.3315C132.055 70.8236 134.075 72.8173 136.541 72.8173H140.79C141.21 72.8173 141.551 72.4763 141.551 72.0566V41.2591C141.735 35.4092 145.88 32.3137 150.995 32.3137C156.11 32.3137 160.255 35.4092 160.439 41.2591V68.3053C160.439 70.7974 162.459 72.7911 164.925 72.7911H169.175C169.594 72.7911 169.935 72.4501 169.935 72.0304V41.2329C170.119 35.3829 174.264 32.2874 179.379 32.2874C184.495 32.2874 188.64 35.3829 188.823 41.2329V68.279C188.823 70.7712 190.843 72.7649 193.309 72.7649H197.559C197.979 72.7649 198.32 72.4239 198.32 72.0041V41.2066C198.346 41.2329 198.32 41.2066 198.32 41.1804ZM293.992 23.8142H286.778C284.784 23.8142 282.921 24.811 281.793 26.4637L273.818 38.2686C272.769 39.8163 270.513 39.8163 269.464 38.2686L261.489 26.4637C260.387 24.811 258.498 23.8142 256.505 23.8142H249.29C248.845 23.8142 248.582 24.3126 248.818 24.6799L263.037 45.7712C264.06 47.2927 264.06 49.2864 263.037 50.8079L248.818 71.8992C248.556 72.2665 248.845 72.7649 249.29 72.7649H256.505C258.498 72.7649 260.361 71.768 261.489 70.1154L269.464 58.3105C270.513 56.7628 272.769 56.7628 273.818 58.3105L281.793 70.1154C282.895 71.768 284.784 72.7649 286.778 72.7649H293.992C294.438 72.7649 294.7 72.2665 294.464 71.8992L280.219 50.8341C279.196 49.3126 279.196 47.3189 280.219 45.7974L294.438 24.7061C294.7 24.3389 294.438 23.8142 293.992 23.8142ZM245.565 23.8142H241.316C239.165 23.8142 237.354 25.3357 236.908 27.3556C233.131 24.47 228.383 23.001 223.267 23.001C210.833 23.001 200.733 31.6579 200.733 48.001C200.733 64.3441 210.807 73.001 223.267 73.001C228.356 73.001 233.052 71.5582 236.83 68.725C237.04 71.0073 238.955 72.8173 241.316 72.8173H245.565C245.985 72.8173 246.326 72.4763 246.326 72.0566V24.575C246.3 24.1552 245.985 23.8142 245.565 23.8142ZM223.267 63.7145C215.843 63.7145 209.81 58.2843 209.81 48.0272C209.81 37.7701 215.843 32.3399 223.267 32.3399C230.691 32.3399 236.725 37.7701 236.725 48.0272C236.725 58.2843 230.691 63.7145 223.267 63.7145Z" fill="#788293"/>
<mask id="mask0_806_7847" style="mask-type:luminance" maskUnits="userSpaceOnUse" x="132" y="23" width="163" height="51">
<path d="M198.312 41.1829C198.049 29.3256 189.655 23.0559 179.371 23.0559C173.731 23.0559 168.642 24.9447 165.179 28.6173C161.716 24.9447 156.627 23.0559 150.987 23.0559C140.704 23.0559 132.309 29.3518 132.047 41.2091C132.047 41.2353 132.047 41.2616 132.047 41.2878V68.334C132.047 70.8261 134.067 72.8198 136.533 72.8198H140.782C141.202 72.8198 141.543 72.4788 141.543 72.059V41.2616C141.727 35.4116 145.872 32.3161 150.987 32.3161C156.103 32.3161 160.247 35.4116 160.431 41.2616V68.3077C160.431 70.7999 162.451 72.7936 164.917 72.7936H169.167C169.586 72.7936 169.927 72.4525 169.927 72.0328V41.2353C170.111 35.3854 174.256 32.2899 179.371 32.2899C184.487 32.2899 188.632 35.3854 188.815 41.2353V68.2815C188.815 70.7736 190.835 72.7673 193.301 72.7673H197.551C197.971 72.7673 198.312 72.4263 198.312 72.0066V41.2091C198.338 41.2353 198.312 41.2091 198.312 41.1829ZM293.984 23.8166H286.77C284.776 23.8166 282.914 24.8135 281.785 26.4662L273.811 38.271C272.761 39.8187 270.505 39.8187 269.456 38.271L261.481 26.4662C260.379 24.8135 258.49 23.8166 256.497 23.8166H249.283C248.837 23.8166 248.574 24.3151 248.81 24.6823L263.029 45.7736C264.052 47.2951 264.052 49.2888 263.029 50.8103L248.81 71.9016C248.548 72.2689 248.837 72.7673 249.283 72.7673H256.497C258.49 72.7673 260.353 71.7705 261.481 70.1178L269.456 58.313C270.505 56.7652 272.761 56.7652 273.811 58.313L281.785 70.1178C282.887 71.7705 284.776 72.7673 286.77 72.7673H293.984C294.43 72.7673 294.692 72.2689 294.456 71.9016L280.212 50.8366C279.188 49.3151 279.188 47.3214 280.212 45.7999L294.43 24.7086C294.692 24.3413 294.43 23.8166 293.984 23.8166ZM245.558 23.8166H241.308C239.157 23.8166 237.347 25.3382 236.901 27.3581C233.123 24.4725 228.375 23.0034 223.259 23.0034C210.825 23.0034 200.725 31.6603 200.725 48.0034C200.725 64.3465 210.799 73.0034 223.259 73.0034C228.349 73.0034 233.044 71.5606 236.822 68.7274C237.032 71.0097 238.947 72.8198 241.308 72.8198H245.558C245.977 72.8198 246.318 72.4788 246.318 72.059V24.5774C246.292 24.1577 245.977 23.8166 245.558 23.8166ZM223.259 63.717C215.835 63.717 209.802 58.2867 209.802 48.0297C209.802 37.7726 215.835 32.3423 223.259 32.3423C230.683 32.3423 236.717 37.7726 236.717 48.0297C236.717 58.2867 230.683 63.717 223.259 63.717Z" fill="788293"/>
</mask>
<g mask="url(#mask0_806_7847)">
<path d="M171.166 76.5968C187.19 76.5968 200.18 59.6841 200.18 38.8213C200.18 17.9585 187.19 1.0459 171.166 1.0459C155.142 1.0459 142.152 17.9585 142.152 38.8213C142.152 59.6841 155.142 76.5968 171.166 76.5968Z" fill="#788293"/>
</g>
<mask id="mask1_806_7847" style="mask-type:luminance" maskUnits="userSpaceOnUse" x="132" y="23" width="163" height="51">
<path d="M198.312 41.1829C198.049 29.3256 189.655 23.0559 179.371 23.0559C173.731 23.0559 168.642 24.9447 165.179 28.6173C161.716 24.9447 156.627 23.0559 150.987 23.0559C140.704 23.0559 132.309 29.3518 132.047 41.2091C132.047 41.2353 132.047 41.2616 132.047 41.2878V68.334C132.047 70.8261 134.067 72.8198 136.533 72.8198H140.782C141.202 72.8198 141.543 72.4788 141.543 72.059V41.2616C141.727 35.4116 145.872 32.3161 150.987 32.3161C156.103 32.3161 160.247 35.4116 160.431 41.2616V68.3077C160.431 70.7999 162.451 72.7936 164.917 72.7936H169.167C169.586 72.7936 169.927 72.4525 169.927 72.0328V41.2353C170.111 35.3854 174.256 32.2899 179.371 32.2899C184.487 32.2899 188.632 35.3854 188.815 41.2353V68.2815C188.815 70.7736 190.835 72.7673 193.301 72.7673H197.551C197.971 72.7673 198.312 72.4263 198.312 72.0066V41.2091C198.338 41.2353 198.312 41.2091 198.312 41.1829ZM293.984 23.8166H286.77C284.776 23.8166 282.914 24.8135 281.785 26.4662L273.811 38.271C272.761 39.8187 270.505 39.8187 269.456 38.271L261.481 26.4662C260.379 24.8135 258.49 23.8166 256.497 23.8166H249.283C248.837 23.8166 248.574 24.3151 248.81 24.6823L263.029 45.7736C264.052 47.2951 264.052 49.2888 263.029 50.8103L248.81 71.9016C248.548 72.2689 248.837 72.7673 249.283 72.7673H256.497C258.49 72.7673 260.353 71.7705 261.481 70.1178L269.456 58.313C270.505 56.7652 272.761 56.7652 273.811 58.313L281.785 70.1178C282.887 71.7705 284.776 72.7673 286.77 72.7673H293.984C294.43 72.7673 294.692 72.2689 294.456 71.9016L280.212 50.8366C279.188 49.3151 279.188 47.3214 280.212 45.7999L294.43 24.7086C294.692 24.3413 294.43 23.8166 293.984 23.8166ZM245.558 23.8166H241.308C239.157 23.8166 237.347 25.3382 236.901 27.3581C233.123 24.4725 228.375 23.0034 223.259 23.0034C210.825 23.0034 200.725 31.6603 200.725 48.0034C200.725 64.3465 210.799 73.0034 223.259 73.0034C228.349 73.0034 233.044 71.5606 236.822 68.7274C237.032 71.0097 238.947 72.8198 241.308 72.8198H245.558C245.977 72.8198 246.318 72.4788 246.318 72.059V24.5774C246.292 24.1577 245.977 23.8166 245.558 23.8166ZM223.259 63.717C215.835 63.717 209.802 58.2867 209.802 48.0297C209.802 37.7726 215.835 32.3423 223.259 32.3423C230.683 32.3423 236.717 37.7726 236.717 48.0297C236.717 58.2867 230.683 63.717 223.259 63.717Z" fill="788293"/>
</mask>
<g mask="url(#mask1_806_7847)">
<path d="M200.074 112.562C233.049 112.562 259.78 93.6411 259.78 70.3008C259.78 46.9606 233.049 28.0396 200.074 28.0396C167.099 28.0396 140.367 46.9606 140.367 70.3008C140.367 93.6411 167.099 112.562 200.074 112.562Z" fill="#788293"/>
</g>
<mask id="mask2_806_7847" style="mask-type:luminance" maskUnits="userSpaceOnUse" x="132" y="23" width="163" height="51">
<path d="M198.312 41.1829C198.049 29.3256 189.655 23.0559 179.371 23.0559C173.731 23.0559 168.642 24.9447 165.179 28.6173C161.716 24.9447 156.627 23.0559 150.987 23.0559C140.704 23.0559 132.309 29.3518 132.047 41.2091C132.047 41.2353 132.047 41.2616 132.047 41.2878V68.334C132.047 70.8261 134.067 72.8198 136.533 72.8198H140.782C141.202 72.8198 141.543 72.4788 141.543 72.059V41.2616C141.727 35.4116 145.872 32.3161 150.987 32.3161C156.103 32.3161 160.247 35.4116 160.431 41.2616V68.3077C160.431 70.7999 162.451 72.7936 164.917 72.7936H169.167C169.586 72.7936 169.927 72.4525 169.927 72.0328V41.2353C170.111 35.3854 174.256 32.2899 179.371 32.2899C184.487 32.2899 188.632 35.3854 188.815 41.2353V68.2815C188.815 70.7736 190.835 72.7673 193.301 72.7673H197.551C197.971 72.7673 198.312 72.4263 198.312 72.0066V41.2091C198.338 41.2353 198.312 41.2091 198.312 41.1829ZM293.984 23.8166H286.77C284.776 23.8166 282.914 24.8135 281.785 26.4662L273.811 38.271C272.761 39.8187 270.505 39.8187 269.456 38.271L261.481 26.4662C260.379 24.8135 258.49 23.8166 256.497 23.8166H249.283C248.837 23.8166 248.574 24.3151 248.81 24.6823L263.029 45.7736C264.052 47.2951 264.052 49.2888 263.029 50.8103L248.81 71.9016C248.548 72.2689 248.837 72.7673 249.283 72.7673H256.497C258.49 72.7673 260.353 71.7705 261.481 70.1178L269.456 58.313C270.505 56.7652 272.761 56.7652 273.811 58.313L281.785 70.1178C282.887 71.7705 284.776 72.7673 286.77 72.7673H293.984C294.43 72.7673 294.692 72.2689 294.456 71.9016L280.212 50.8366C279.188 49.3151 279.188 47.3214 280.212 45.7999L294.43 24.7086C294.692 24.3413 294.43 23.8166 293.984 23.8166ZM245.558 23.8166H241.308C239.157 23.8166 237.347 25.3382 236.901 27.3581C233.123 24.4725 228.375 23.0034 223.259 23.0034C210.825 23.0034 200.725 31.6603 200.725 48.0034C200.725 64.3465 210.799 73.0034 223.259 73.0034C228.349 73.0034 233.044 71.5606 236.822 68.7274C237.032 71.0097 238.947 72.8198 241.308 72.8198H245.558C245.977 72.8198 246.318 72.4788 246.318 72.059V24.5774C246.292 24.1577 245.977 23.8166 245.558 23.8166ZM223.259 63.717C215.835 63.717 209.802 58.2867 209.802 48.0297C209.802 37.7726 215.835 32.3423 223.259 32.3423C230.683 32.3423 236.717 37.7726 236.717 48.0297C236.717 58.2867 230.683 63.717 223.259 63.717Z" fill="788293"/>
</mask>
<g mask="url(#mask2_806_7847)">
<path d="M236.719 58.3385C254.655 58.3385 269.195 43.7983 269.195 25.8621C269.195 7.92592 254.655 -6.61426 236.719 -6.61426C218.782 -6.61426 204.242 7.92592 204.242 25.8621C204.242 43.7983 218.782 58.3385 236.719 58.3385Z" fill="#788293"/>
</g>
<defs>
<linearGradient id="paint0_linear_806_7847" x1="132.065" y1="48.0154" x2="294.543" y2="48.0154" gradientUnits="userSpaceOnUse">
<stop stop-color="#991EEB"/>
<stop offset="0.399" stop-color="#5822B4"/>
<stop offset="0.727" stop-color="#5822B4"/>
<stop offset="1" stop-color="#991EEB"/>
</linearGradient>
<radialGradient id="paint1_radial_806_7847" cx="0" cy="0" r="1" gradientUnits="userSpaceOnUse" gradientTransform="translate(171.178 38.8115) scale(29.0124 37.7677)">
<stop stop-color="#7BA7F2" stop-opacity="0.5"/>
<stop offset="1" stop-color="#7BA7F2" stop-opacity="0"/>
</radialGradient>
<radialGradient id="paint2_radial_806_7847" cx="0" cy="0" r="1" gradientUnits="userSpaceOnUse" gradientTransform="translate(200.063 70.2932) scale(59.6957 42.2702)">
<stop offset="0.2" stop-color="#7BA7F2"/>
<stop offset="1" stop-color="#7BA7F2" stop-opacity="0"/>
</radialGradient>
<radialGradient id="paint3_radial_806_7847" cx="0" cy="0" r="1" gradientUnits="userSpaceOnUse" gradientTransform="translate(236.715 25.8722) scale(32.4696 32.4694)">
<stop stop-color="#7BA7F2"/>
<stop offset="1" stop-color="#7BA7F2" stop-opacity="0"/>
</radialGradient>
</defs>
</svg>
