<svg width="332" height="100" viewBox="0 0 332 100" fill="none" xmlns="http://www.w3.org/2000/svg">
<g clip-path="url(#clip0_1353_635)">
<path d="M126.809 86.3983V13.3945H140.212V86.3983H126.809Z" fill="#788293"/>
<path d="M255.363 36.7878H268.163V42.8401C270.883 38.0006 277.235 35.3767 282.675 35.3767C289.431 35.3767 294.871 38.3023 297.39 43.6447C301.318 37.5923 306.563 35.3767 313.114 35.3767C322.284 35.3767 331.052 40.9232 331.052 54.2316V86.3984H318.051V56.9563C318.051 51.6109 315.429 47.579 309.281 47.579C303.535 47.579 300.107 52.0162 300.107 57.3616V86.4016H286.808V56.9563C286.808 51.6109 284.088 47.579 278.038 47.579C272.191 47.579 268.763 51.9156 268.763 57.3616V86.4016H255.363V36.7878Z" fill="#788293"/>
<path d="M170.502 87.8359C155.403 87.8359 144.469 76.6364 144.469 61.5943C144.469 46.7919 155.368 35.3262 170.502 35.3262C185.711 35.3262 196.536 46.8983 196.536 61.5943C196.536 76.527 185.596 87.8359 170.502 87.8359ZM170.502 47.4693C162.715 47.4693 156.38 53.8054 156.38 61.5975C156.38 69.3891 162.715 75.7254 170.502 75.7254C178.29 75.7254 184.622 69.3891 184.622 61.5975C184.622 53.8054 178.29 47.4693 170.502 47.4693Z" fill="#788293"/>
<path d="M225.167 87.8359C210.067 87.8359 199.133 76.6364 199.133 61.5943C199.133 46.7919 210.032 35.3262 225.167 35.3262C240.375 35.3262 251.2 46.8983 251.2 61.5943C251.2 76.527 240.254 87.8359 225.167 87.8359ZM225.167 47.3006C217.29 47.3006 210.881 53.7138 210.881 61.5912C210.881 69.4691 217.29 75.8822 225.167 75.8822C233.043 75.8822 239.452 69.4691 239.452 61.5912C239.449 53.7138 233.04 47.3006 225.167 47.3006Z" fill="#788293"/>
<path d="M99.7953 44.3485H70.6137L95.8863 29.7574L90.3363 20.1417L65.0637 34.7328L79.6516 9.46216L70.0358 3.90883L55.4479 29.1794V0H44.3473V29.1822L29.7538 3.90883L20.1411 9.45937L34.7318 34.73L9.45911 20.1417L3.90873 29.7546L29.1814 44.3457H0V55.4468H29.1786L3.90873 70.0379L9.45911 79.6537L34.729 65.0653L20.1383 90.3358L29.7538 95.8863L44.3445 70.6132V99.7953H55.4453V70.6158L70.0332 95.8863L79.6484 90.3358L65.0579 65.0626L90.3305 79.6537L95.8811 70.0379L70.6111 55.4495H99.7895V44.3485H99.7953ZM49.8976 64.9953C41.5274 64.9953 34.7429 58.2111 34.7429 49.8404C34.7429 41.4699 41.5274 34.6853 49.8976 34.6853C58.2679 34.6853 65.0521 41.4699 65.0521 49.8404C65.0521 58.2111 58.2679 64.9953 49.8976 64.9953Z" fill="#788293"/>
</g>
<defs>
<clipPath id="clip0_1353_635">
<rect width="331.053" height="100" fill="white"/>
</clipPath>
</defs>
</svg>
