<svg width="597" height="100" viewBox="0 0 597 100" fill="none" xmlns="http://www.w3.org/2000/svg">
<g clip-path="url(#clip0_1351_289)">
<path fill-rule="evenodd" clip-rule="evenodd" d="M159.451 0.37793L108.572 99.8403H60.7823L82.0751 58.6188H81.1199C63.5536 81.4221 37.3443 96.4337 0 99.8403V59.1895C0 59.1895 23.89 57.7784 37.9343 43.0127H0V0.378715H42.634V35.4446L43.5909 35.4406L61.0127 0.378715H93.2558V35.2222L94.2127 35.2207L112.288 0.37793H159.451Z" fill="#788293"/>
<path d="M436.895 88.8619H450.625V10.048H436.895V88.8619Z" fill="#788293"/>
<path fill-rule="evenodd" clip-rule="evenodd" d="M361.201 88.0569C364.185 89.2978 367.219 89.9177 370.304 89.9177C375.401 89.9177 379.961 88.6774 383.985 86.1962C388.008 83.7149 391.127 80.2945 393.34 75.9359C395.553 71.5431 396.659 66.5641 396.659 60.9978C396.659 55.4315 395.519 50.4524 393.239 46.0599C390.959 41.6674 387.791 38.264 383.733 35.8498C379.676 33.4021 375.066 32.195 369.902 32.2285C366.616 32.2285 363.464 32.8656 360.446 34.1398C357.428 35.4139 354.914 37.2246 352.902 39.5717C352.746 39.7504 352.596 39.9309 352.449 40.1132V10.0983H338.668V88.8619H352.349L352.321 81.5039C352.675 81.9376 353.053 82.3614 353.455 82.7757C355.635 85.0227 358.217 86.7829 361.201 88.0569ZM375.283 75.3321C373.037 76.7067 370.472 77.3945 367.588 77.3945C364.738 77.3945 362.123 76.6901 359.742 75.2818C357.361 73.8398 355.467 71.8785 354.059 69.3973C352.684 66.9161 351.997 64.0995 351.997 60.9475C351.963 57.7956 352.634 54.979 354.008 52.4978C355.417 49.983 357.311 48.0382 359.692 46.6635C362.072 45.2552 364.704 44.5678 367.588 44.6013C370.472 44.5678 373.037 45.2384 375.283 46.6131C377.564 47.9543 379.307 49.8824 380.514 52.3972C381.755 54.8784 382.375 57.7288 382.375 60.9475C382.375 64.1663 381.755 67.0166 380.514 69.4978C379.307 71.979 377.564 73.9238 375.283 75.3321Z" fill="#788293"/>
<path d="M179.344 14.826H195.036L209.074 66.0911L224.007 14.826H237.084L253.279 65.0624L266.758 14.826H281.143L259.918 88.8618H246.388L229.92 39.7849L214.802 88.8618H201.122L179.344 14.826Z" fill="#788293"/>
<path fill-rule="evenodd" clip-rule="evenodd" d="M304.316 90.1696C298.85 90.2027 293.922 88.9955 289.529 86.548C285.17 84.0668 281.733 80.6298 279.218 76.2375C276.737 71.8447 275.496 66.832 275.496 61.1989C275.496 55.7337 276.771 50.7876 279.319 46.3616C281.867 41.9355 285.321 38.4819 289.68 36.0006C294.039 33.5194 298.9 32.2787 304.266 32.2787C310.301 32.2787 315.582 33.62 320.109 36.3024C324.669 38.9848 328.072 42.7906 330.319 47.7196C332.599 52.615 333.42 58.2315 332.783 64.5685H289.701C289.821 67.0933 290.451 69.3906 291.591 71.4591C292.865 73.7392 294.642 75.5165 296.922 76.7906C299.202 78.0646 301.751 78.7016 304.567 78.7016C306.713 78.6685 308.708 78.2994 310.552 77.5955C312.397 76.858 313.956 75.8685 315.23 74.6281C316.538 73.3872 317.46 71.979 317.996 70.4033H332.381C331.509 74.2591 329.766 77.6961 327.15 80.7138C324.535 83.6977 321.249 86.0281 317.292 87.7049C313.335 89.3812 309.01 90.2027 304.316 90.1696ZM291.641 50.7373C290.838 52.1386 290.281 53.6475 289.971 55.264H318.529C318.322 53.2217 317.692 51.3608 316.638 49.6811C315.431 47.7028 313.788 46.1771 311.709 45.1042C309.63 43.9977 307.283 43.4444 304.668 43.4444C301.885 43.4444 299.354 44.0815 297.073 45.3556C294.793 46.6298 292.982 48.4237 291.641 50.7373Z" fill="#788293"/>
<path d="M406.766 33.4356C406.766 28.9424 407.789 24.9523 409.834 21.4652C411.88 17.9444 414.747 15.2117 418.435 13.2669C422.157 11.2886 426.499 10.2659 431.462 10.1989V22.4207C429.148 22.4543 427.17 22.9405 425.527 23.8794C423.917 24.7847 422.676 26.1091 421.805 27.8527C421.002 29.4579 420.569 31.3189 420.505 33.4356H431.16V45.0539H420.497V88.8619H406.766V45.0539H397.914V33.4356H406.766Z" fill="#788293"/>
<path fill-rule="evenodd" clip-rule="evenodd" d="M485.532 90.0691C479.932 90.0691 474.92 88.8448 470.493 86.3973C466.101 83.9161 462.647 80.4956 460.132 76.1371C457.651 71.7443 456.41 66.7653 456.41 61.199C456.41 55.5995 457.651 50.6033 460.132 46.2108C462.647 41.7848 466.101 38.3479 470.493 35.9001C474.92 33.4524 479.932 32.2285 485.532 32.2285C491.165 32.2285 496.195 33.4524 500.621 35.9001C505.08 38.3479 508.55 41.768 511.032 46.1605C513.513 50.553 514.77 55.5658 514.804 61.199C514.77 66.7653 513.513 71.7443 511.032 76.1371C508.584 80.4956 505.131 83.9161 500.671 86.3973C496.211 88.8448 491.165 90.0691 485.532 90.0691ZM485.532 77.4448C488.483 77.4448 491.098 76.7741 493.378 75.4327C495.658 74.0581 497.418 72.1465 498.659 69.699C499.9 67.2177 500.52 64.3846 500.52 61.199C500.52 57.9802 499.9 55.13 498.659 52.6487C497.418 50.1674 495.658 48.2562 493.378 46.9149C491.098 45.5402 488.483 44.8528 485.532 44.8528C482.615 44.8528 480.016 45.5402 477.736 46.9149C475.489 48.2562 473.745 50.1674 472.505 52.6487C471.264 55.13 470.661 57.9802 470.695 61.199C470.695 64.3846 471.315 67.2177 472.555 69.699C473.829 72.1465 475.573 74.0581 477.786 75.4327C480.033 76.7741 482.615 77.4448 485.532 77.4448Z" fill="#788293"/>
<path d="M529.641 33.4355H514.352L530.899 88.8618H544.278L555.161 53.4611L566.912 88.8618H580.089L596.686 33.4355H582.857L573.443 67.9348L563.039 33.4355H549.659L539.305 68.695L529.641 33.4355Z" fill="#788293"/>
</g>
<defs>
<clipPath id="clip0_1351_289">
<rect width="596.685" height="100" fill="white"/>
</clipPath>
</defs>
</svg>
